inDegrees=yes
name=ik_S49_A13_T01
DataType=double
version=3
OpenSimVersion=4.3-2021-08-27-4bc7ad9
endheader
time	pelvis_tilt	pelvis_list	pelvis_rotation	pelvis_tx	pelvis_ty	pelvis_tz	hip_flexion_r	hip_adduction_r	hip_rotation_r	knee_angle_r	knee_angle_r_beta	ankle_angle_r	subtalar_angle_r	mtp_angle_r	hip_flexion_l	hip_adduction_l	hip_rotation_l	knee_angle_l	knee_angle_l_beta	ankle_angle_l	subtalar_angle_l	mtp_angle_l	lumbar_extension	lumbar_bending	lumbar_rotation	arm_flex_r	arm_add_r	arm_rot_r	elbow_flex_r	pro_sup_r	wrist_flex_r	wrist_dev_r	arm_flex_l	arm_add_l	arm_rot_l	elbow_flex_l	pro_sup_l	wrist_flex_l	wrist_dev_l
0	0	0	0	0	0.9399999999999999	0	0	0	0	0	0	0	0	0	0	0	0	0	0	0	0	0	0	0	0	0	0	0	0	89.99999999963507	0	0	0	0	0	0	89.99999999869995	0	0
0.02	0.100133155035694	0.4521796499016257	22.87357908749513	0	0.9399999999999999	0	2.757779673727839	-1.285726261298989	-0.9283210494750337	4.288185906716286	0.0748429630098176	0	0	0	2.757779673727839	-1.285726261298989	-0.9283210494750337	4.288185906716286	0.0748429630098176	0	0	0	0.8140354763380477	2.210749047692634	6.565084182862892	10.84225493645586	-1.541257288854673	20.13770748578535	19.94497842140148	143.3864066662572	0	0	10.81179754766734	0.2256278218581063	16.07533482877609	16.96517888932776	142.739363247714	0	0
0.04	0.1065039904873776	0.4666017842063169	22.93246651455834	0	0.9399999999999999	0	4.507395589542955	-2.196234694183015	-1.531136508363774	6.682756294275702	0.1166361004434861	0	0	0	4.507395589542955	-2.196234694183015	-1.531136508363774	6.682756294275702	0.1166361004434861	0	0	0	0.797490305903487	2.207160184941415	6.502171634099761	10.85971425286893	-1.558968969244366	20.14667077962612	19.94645084422607	143.3336152726166	0	0	10.82662563082352	0.2433464392136529	16.15497699244737	16.92942230303806	142.6671617927913	0	0
0.06	0.09290315134751895	0.4630512968478748	22.92417543241818	0	0.9399999999999999	0	4.611385161026128	-2.241764620628564	-1.56916856980352	6.766668040978094	0.1181006367045423	0	0	0	4.611385161026128	-2.241764620628564	-1.56916856980352	6.766668040978094	0.1181006367045423	0	0	0	0.782587087649125	2.205714489153374	6.490131971795866	10.86670279144924	-1.55634115621988	20.11624401664933	19.94842726802975	143.3243711179946	0	0	10.85422594191815	0.2480823461450381	16.20182155675678	16.91816154145206	142.6336461459613	0	0
0.08	0.0951769721056821	0.4646986283936791	22.9234113440855	0	0.9399999999999999	0	4.675802168746219	-2.26859614416673	-1.593514033634877	6.804805041300437	0.1187662529270013	0	0	0	4.675802168746219	-2.26859614416673	-1.593514033634877	6.804805041300437	0.1187662529270013	0	0	0	0.7845372734679219	2.204124181010494	6.493161802963639	10.82459732056042	-1.564402699271095	20.0329230145852	19.91984251711015	143.3549258315772	0	0	10.87471917464754	0.2490862449627872	16.23854038288827	16.86735038671653	142.6746184361616	0	0
0.1	0.09347775986041315	0.4591415498417233	22.91259900848945	0	0.9399999999999999	0	4.754027612675076	-2.303215715662519	-1.622516931978056	6.863967684951096	0.1197988358528895	0	0	0	4.754027612675076	-2.303215715662519	-1.622516931978056	6.863967684951096	0.1197988358528895	0	0	0	0.7800379725884123	2.19695568239641	6.484497546676693	10.83684706219048	-1.555123697356111	20.01346727653801	19.93536824089786	143.3454582967364	0	0	10.8773523448619	0.2333816334165937	16.24291201991726	16.87629099070791	142.7507778064364	0	0
0.12	0.08960186523902224	0.457577890546536	22.9050719108182	0	0.9399999999999999	0	4.838559694333251	-2.340648818250031	-1.653595368604639	6.930889416795011	0.1209668404147025	0	0	0	4.838559694333251	-2.340648818250031	-1.653595368604639	6.930889416795011	0.1209668404147025	0	0	0	0.7750574262037481	2.194142367940608	6.473947545005769	10.83351822402595	-1.567268876908916	19.99963308068868	19.94380632267273	143.3203534682401	0	0	10.87862078890294	0.236587640225848	16.25027498770911	16.8882433293533	142.7841248393116	0	0
0.14	0.07822985920197198	0.4603460985892034	22.8957590345562	0	0.9399999999999999	0	4.930105173358836	-2.381352612752032	-1.686930323580445	7.007296109892297	0.122300388779811	0	0	0	4.930105173358836	-2.381352612752032	-1.686930323580445	7.007296109892297	0.122300388779811	0	0	0	0.7648272604553062	2.198127611776996	6.461663653842455	10.84252331627609	-1.584386704352657	19.98688193820381	19.95577401926044	143.2852814898706	0	0	10.88645847579883	0.2503509200482663	16.22494637731662	16.89187874370301	142.8191786213431	0	0
0.16	0.06987342294975395	0.4589840337254739	22.89038087887564	0	0.9399999999999999	0	5.015942949938216	-2.418710132574888	-1.718260125515207	7.075335031449502	0.1234878919804904	0	0	0	5.015942949938216	-2.418710132574888	-1.718260125515207	7.075335031449502	0.1234878919804904	0	0	0	0.7556643619776842	2.197245583196401	6.449292061004987	10.84367486300478	-1.594247783863629	20.01155519348353	19.97259670589824	143.2572322365849	0	0	10.87771453651299	0.2613597970778112	16.25570297212706	16.89181133767596	142.7910411486831	0	0
0.18	0.05310001495016263	0.4497895421285409	22.88346404686755	0	0.9399999999999999	0	5.112846082508975	-2.460183550052443	-1.753371818428749	7.152858505698834	0.1248409318537262	0	0	0	5.112846082508975	-2.460183550052443	-1.753371818428749	7.152858505698834	0.1248409318537262	0	0	0	0.7356043807742996	2.191981457801205	6.437227879988384	10.8633810329473	-1.60189200903437	20.01647676169733	19.98932052430905	143.2113468464043	0	0	10.90226838385153	0.2442617592166089	16.3077374169282	16.89108873186663	142.7404966539554	0	0
0.2	0.03907907219480834	0.4459869513292552	22.88995884182802	0	0.9399999999999999	0	5.209006621701693	-2.500047831637566	-1.788201704949669	7.225241716012747	0.1261042571968675	0	0	0	5.209006621701693	-2.500047831637566	-1.788201704949669	7.225241716012747	0.1261042571968675	0	0	0	0.7201227355613528	2.19067903149993	6.435353568464993	10.87580418357592	-1.60781802708088	19.99122537688124	19.97743414278309	143.1807880300217	0	0	10.92229723400181	0.2505947534034605	16.38570443667598	16.87711313896195	142.6866766825846	0	0
0.22	0.03271861127958168	0.4423386948182624	22.87199018476369	0	0.9399999999999999	0	5.303269877963155	-2.540556900919526	-1.822297766761715	7.301292414752631	0.1274315922883208	0	0	0	5.303269877963155	-2.540556900919526	-1.822297766761715	7.301292414752631	0.1274315922883208	0	0	0	0.7119352880755065	2.186432353429717	6.415054922000269	10.87338686305334	-1.590888352092307	20.01134598532694	19.98729529962779	143.1256482187979	0	0	10.92086027840119	0.2512242774564795	16.39450118476442	16.88784304743236	142.6480143514442	0	0
0.24	0.03234110617808243	0.4420255838716965	22.87424365729204	0	0.9399999999999999	0	5.373514441310283	-2.569982573402721	-1.848133957391915	7.34980570305651	0.1282783089001928	0	0	0	5.373514441310283	-2.569982573402721	-1.848133957391915	7.34980570305651	0.1282783089001928	0	0	0	0.7107102640419029	2.18377343579507	6.409139191100349	10.87359116338109	-1.599701508938069	20.00027978430731	19.96138052876825	143.1233550757536	0	0	10.91681751524721	0.2516377194419982	16.40132225149057	16.86134315433227	142.6466756596413	0	0
0.26	0.02678824654668235	0.4473643261896014	22.86211998942149	0	0.9399999999999999	0	5.457215963282448	-2.601025019714893	-1.878519658151699	7.397137743950369	0.1291044088554792	0	0	0	5.457215963282448	-2.601025019714893	-1.878519658151699	7.397137743950369	0.1291044088554792	0	0	0	0.7067084308615414	2.187360572834325	6.395591774022271	10.88172189980235	-1.608482252773461	20.02298106118956	19.94196781499702	143.1397955779503	0	0	10.92546590559356	0.2546258767147658	16.37283787882543	16.84595630227569	142.6422836024628	0	0
0.28	0.01579770664689978	0.4361458834333226	22.84333982871086	0	0.9399999999999999	0	5.547063682737225	-2.639173329446208	-1.910963536405209	7.467595669230224	0.1303341316357368	0	0	0	5.547063682737225	-2.639173329446208	-1.910963536405209	7.467595669230224	0.1303341316357368	0	0	0	0.6913816725775017	2.178120826076697	6.378915524805877	10.91628456345489	-1.586793905721104	20.03316746532574	19.94659198523365	143.2127272046269	0	0	10.94816478275141	0.248820406000979	16.34179610193734	16.86598938639903	142.6699546525911	0	0
0.3	0.02028999905321941	0.4351417430347522	22.84303832120896	0	0.9399999999999999	0	5.645519744636978	-2.677346072151796	-1.946065549682563	7.53584259386119	0.1315252651749076	0	0	0	5.645519744636978	-2.677346072151796	-1.946065549682563	7.53584259386119	0.1315252651749076	0	0	0	0.6940777677087294	2.171846373312935	6.372072599554024	10.909241342169	-1.584064373977669	20.03563759216675	19.94400601132509	143.2088825786314	0	0	10.94087267354599	0.233737282863167	16.33625990084911	16.86193757028137	142.6640790813504	0	0
0.32	0.008346764664897579	0.4468356117113751	22.92494120437394	0	0.9399999999999999	0	7.095507640148464	-3.316536364173346	-2.434010547904244	9.202646742867337	0.160616485560967	0	0	0	7.095507640148464	-3.316536364173346	-2.434010547904244	9.202646742867337	0.160616485560967	0	0	0	0.6696190459149178	2.149597110040449	6.28520334320285	10.95868755813298	-1.603661415768776	20.10351615094273	19.94651416622506	143.157527155772	0	0	10.97164349136273	0.2504161621679551	16.34974969311756	16.85538625331466	142.7315493149128	0	0
0.34	-0.000671072903991122	0.4384388722189241	22.92054579595012	0	0.9399999999999999	0	7.199217013837465	-3.357538405421628	-2.469811636062652	9.292091911093047	0.1621775982465059	0	0	0	7.199217013837465	-3.357538405421628	-2.469811636062652	9.292091911093047	0.1621775982465059	0	0	0	0.6569498605443694	2.141979807706579	6.273775162198957	10.96526174622042	-1.594285563545372	20.1416755543619	19.94713219923408	143.045264896792	0	0	10.96703188001372	0.2402123990198115	16.40027389936466	16.85948855101645	142.6633527942552	0	0
0.36	-0.004798319405752915	0.4349579714047151	22.92730889397484	0	0.9399999999999999	0	7.300484381681143	-3.410776783031878	-2.507015757668282	9.404713145091311	0.1641432095874346	0	0	0	7.300484381681143	-3.410776783031878	-2.507015757668282	9.404713145091311	0.1641432095874346	0	0	0	0.6511891956963313	2.13792363614886	6.260032616685939	10.95974003040979	-1.590237784448394	20.17192438367727	19.94256616523569	142.9790199784788	0	0	10.96221298942217	0.235064887648106	16.39801797362117	16.82255038900408	142.5809974410786	0	0
